<mxfile host="app.diagrams.net" modified="2023-06-15T02:04:16.835Z" agent="Mozilla/5.0 (Windows NT 10.0; Win64; x64; rv:102.0) Gecko/20100101 Firefox/102.0" etag="a6z13c_GUzNHcKEfvwPR" version="21.3.2" type="device">
  <diagram id="C5RBs43oDa-KdzZeNtuy" name="Page-1">
    <mxGraphModel dx="1434" dy="782" grid="1" gridSize="10" guides="1" tooltips="1" connect="1" arrows="1" fold="1" page="1" pageScale="1" pageWidth="827" pageHeight="1169" math="0" shadow="0">
      <root>
        <mxCell id="WIyWlLk6GJQsqaUBKTNV-0" />
        <mxCell id="WIyWlLk6GJQsqaUBKTNV-1" parent="WIyWlLk6GJQsqaUBKTNV-0" />
        <mxCell id="WIyWlLk6GJQsqaUBKTNV-3" value="&lt;div&gt;Player starts static in center of level.&lt;br&gt;&lt;/div&gt;&lt;div&gt;&lt;br&gt;&lt;/div&gt;[ 0 Golden apples ]" style="rounded=0;whiteSpace=wrap;html=1;fontSize=12;glass=0;strokeWidth=1;shadow=0;fillColor=#d5e8d4;strokeColor=#82b366;" parent="WIyWlLk6GJQsqaUBKTNV-1" vertex="1">
          <mxGeometry x="80" y="60" width="240" height="90" as="geometry" />
        </mxCell>
        <mxCell id="WIyWlLk6GJQsqaUBKTNV-6" value="&lt;div&gt;&lt;br&gt;&lt;/div&gt;&lt;div&gt;&lt;br&gt;&lt;/div&gt;&lt;div&gt;Does Golden Apple &lt;br&gt;&lt;/div&gt;&lt;div&gt;inventory count&lt;/div&gt;&lt;div&gt;= &lt;br&gt;&lt;/div&gt;&lt;div&gt;3?&lt;br&gt;&lt;/div&gt;" style="rhombus;whiteSpace=wrap;html=1;shadow=0;fontFamily=Helvetica;fontSize=12;align=center;strokeWidth=1;spacing=6;spacingTop=-4;fillColor=#f8cecc;strokeColor=#b85450;" parent="WIyWlLk6GJQsqaUBKTNV-1" vertex="1">
          <mxGeometry x="510" y="270" width="200" height="150" as="geometry" />
        </mxCell>
        <mxCell id="LL0ys3BqvwsLpD2l1-oR-1" value="Player finds Golden Apple" style="rounded=1;whiteSpace=wrap;html=1;fillColor=#fff2cc;strokeColor=#d6b656;" vertex="1" parent="WIyWlLk6GJQsqaUBKTNV-1">
          <mxGeometry x="334" y="170" width="160" height="70" as="geometry" />
        </mxCell>
        <mxCell id="LL0ys3BqvwsLpD2l1-oR-2" value="" style="endArrow=classic;html=1;rounded=0;exitX=1;exitY=0.5;exitDx=0;exitDy=0;" edge="1" parent="WIyWlLk6GJQsqaUBKTNV-1" source="LL0ys3BqvwsLpD2l1-oR-3" target="LL0ys3BqvwsLpD2l1-oR-1">
          <mxGeometry width="50" height="50" relative="1" as="geometry">
            <mxPoint x="30" y="340" as="sourcePoint" />
            <mxPoint x="380" y="350" as="targetPoint" />
          </mxGeometry>
        </mxCell>
        <mxCell id="LL0ys3BqvwsLpD2l1-oR-3" value="&lt;div&gt;Player moves &lt;br&gt;&lt;/div&gt;&lt;div&gt;&lt;br&gt;&lt;/div&gt;&lt;div&gt;[ Movement &lt;br&gt;&lt;/div&gt;&lt;div&gt;Controller script ]&lt;/div&gt;" style="rounded=1;whiteSpace=wrap;html=1;fillColor=#fff2cc;strokeColor=#d6b656;" vertex="1" parent="WIyWlLk6GJQsqaUBKTNV-1">
          <mxGeometry x="120" y="170" width="160" height="70" as="geometry" />
        </mxCell>
        <mxCell id="LL0ys3BqvwsLpD2l1-oR-6" value="&lt;div&gt;Only Light Radius is affected&lt;/div&gt;&lt;div&gt;(light increased)&lt;br&gt;&lt;/div&gt;&lt;div&gt;&lt;br&gt;&lt;/div&gt;&lt;div&gt;[ See: Lighting Script ]&lt;/div&gt;" style="rounded=1;whiteSpace=wrap;html=1;fillColor=#ffe6cc;strokeColor=#d79b00;" vertex="1" parent="WIyWlLk6GJQsqaUBKTNV-1">
          <mxGeometry x="260" y="305" width="190" height="80" as="geometry" />
        </mxCell>
        <mxCell id="LL0ys3BqvwsLpD2l1-oR-21" value="Once player has moved into exit,&lt;br&gt;end game mode." style="rounded=0;whiteSpace=wrap;html=1;fillColor=#d5e8d4;strokeColor=#82b366;" vertex="1" parent="WIyWlLk6GJQsqaUBKTNV-1">
          <mxGeometry x="430" y="1040" width="200" height="80" as="geometry" />
        </mxCell>
        <mxCell id="LL0ys3BqvwsLpD2l1-oR-25" value="&lt;font style=&quot;font-size: 15px;&quot;&gt;&lt;b&gt;Door Open Pseudocode in &#39;An Apple A Day&#39;&lt;/b&gt;&lt;/font&gt;" style="text;strokeColor=none;align=center;fillColor=none;html=1;verticalAlign=middle;whiteSpace=wrap;rounded=0;" vertex="1" parent="WIyWlLk6GJQsqaUBKTNV-1">
          <mxGeometry x="39" y="20" width="315" height="30" as="geometry" />
        </mxCell>
        <mxCell id="LL0ys3BqvwsLpD2l1-oR-26" value="" style="endArrow=classic;html=1;rounded=0;entryX=0.5;entryY=0;entryDx=0;entryDy=0;" edge="1" parent="WIyWlLk6GJQsqaUBKTNV-1" source="WIyWlLk6GJQsqaUBKTNV-3" target="LL0ys3BqvwsLpD2l1-oR-3">
          <mxGeometry width="50" height="50" relative="1" as="geometry">
            <mxPoint x="280" y="350" as="sourcePoint" />
            <mxPoint x="330" y="300" as="targetPoint" />
          </mxGeometry>
        </mxCell>
        <mxCell id="LL0ys3BqvwsLpD2l1-oR-29" value="&lt;div style=&quot;line-height: 30%;&quot;&gt;&lt;br&gt;&lt;/div&gt;&lt;div&gt;UI inventory count for &lt;br&gt;&lt;/div&gt;&lt;div&gt;Golden Apples increases &lt;br&gt;&lt;/div&gt;&lt;div&gt;+1&lt;br&gt;&lt;/div&gt;&lt;div style=&quot;line-height: 20%;&quot;&gt;&lt;br&gt;&lt;/div&gt;&lt;div&gt;[ Inventory / UI script ]&lt;br&gt;&lt;/div&gt;" style="rounded=1;whiteSpace=wrap;html=1;fillColor=#fff2cc;strokeColor=#d6b656;" vertex="1" parent="WIyWlLk6GJQsqaUBKTNV-1">
          <mxGeometry x="530" y="160" width="170" height="90" as="geometry" />
        </mxCell>
        <mxCell id="LL0ys3BqvwsLpD2l1-oR-30" value="" style="endArrow=classic;html=1;rounded=0;entryX=1;entryY=0.5;entryDx=0;entryDy=0;exitX=0;exitY=0.5;exitDx=0;exitDy=0;" edge="1" parent="WIyWlLk6GJQsqaUBKTNV-1" source="WIyWlLk6GJQsqaUBKTNV-6" target="LL0ys3BqvwsLpD2l1-oR-6">
          <mxGeometry width="50" height="50" relative="1" as="geometry">
            <mxPoint x="230" y="560" as="sourcePoint" />
            <mxPoint x="280" y="510" as="targetPoint" />
          </mxGeometry>
        </mxCell>
        <mxCell id="LL0ys3BqvwsLpD2l1-oR-31" value="" style="endArrow=classic;html=1;rounded=0;entryX=0.5;entryY=0;entryDx=0;entryDy=0;" edge="1" parent="WIyWlLk6GJQsqaUBKTNV-1" target="WIyWlLk6GJQsqaUBKTNV-6">
          <mxGeometry width="50" height="50" relative="1" as="geometry">
            <mxPoint x="610" y="250" as="sourcePoint" />
            <mxPoint x="280" y="510" as="targetPoint" />
          </mxGeometry>
        </mxCell>
        <mxCell id="LL0ys3BqvwsLpD2l1-oR-32" value="" style="endArrow=classic;html=1;rounded=0;exitX=1;exitY=0.5;exitDx=0;exitDy=0;entryX=0;entryY=0.5;entryDx=0;entryDy=0;" edge="1" parent="WIyWlLk6GJQsqaUBKTNV-1" source="LL0ys3BqvwsLpD2l1-oR-1" target="LL0ys3BqvwsLpD2l1-oR-29">
          <mxGeometry width="50" height="50" relative="1" as="geometry">
            <mxPoint x="210" y="250" as="sourcePoint" />
            <mxPoint x="200" y="360" as="targetPoint" />
          </mxGeometry>
        </mxCell>
        <mxCell id="LL0ys3BqvwsLpD2l1-oR-35" value="No" style="text;strokeColor=none;align=center;fillColor=none;html=1;verticalAlign=middle;whiteSpace=wrap;rounded=0;" vertex="1" parent="WIyWlLk6GJQsqaUBKTNV-1">
          <mxGeometry x="475" y="350" width="15" height="10" as="geometry" />
        </mxCell>
        <mxCell id="LL0ys3BqvwsLpD2l1-oR-36" value="&lt;p style=&quot;line-height: 100%;&quot;&gt;Inform player through UI prompt&lt;br&gt;that the exit is available&lt;br&gt;&lt;br&gt;[ UI: Event Script ]&lt;/p&gt;" style="rounded=1;whiteSpace=wrap;html=1;fillColor=#dae8fc;strokeColor=#6c8ebf;" vertex="1" parent="WIyWlLk6GJQsqaUBKTNV-1">
          <mxGeometry x="370" y="450" width="210" height="60" as="geometry" />
        </mxCell>
        <mxCell id="LL0ys3BqvwsLpD2l1-oR-37" value="" style="endArrow=classic;html=1;rounded=0;entryX=0.5;entryY=0;entryDx=0;entryDy=0;" edge="1" parent="WIyWlLk6GJQsqaUBKTNV-1" source="WIyWlLk6GJQsqaUBKTNV-6" target="LL0ys3BqvwsLpD2l1-oR-36">
          <mxGeometry width="50" height="50" relative="1" as="geometry">
            <mxPoint x="230" y="560" as="sourcePoint" />
            <mxPoint x="280" y="510" as="targetPoint" />
          </mxGeometry>
        </mxCell>
        <mxCell id="LL0ys3BqvwsLpD2l1-oR-38" value="Yes" style="text;strokeColor=none;align=center;fillColor=none;html=1;verticalAlign=middle;whiteSpace=wrap;rounded=0;" vertex="1" parent="WIyWlLk6GJQsqaUBKTNV-1">
          <mxGeometry x="500" y="410" width="60" height="30" as="geometry" />
        </mxCell>
        <mxCell id="LL0ys3BqvwsLpD2l1-oR-39" value="Player moves to exit" style="rounded=1;whiteSpace=wrap;html=1;fillColor=#fff2cc;strokeColor=#d6b656;" vertex="1" parent="WIyWlLk6GJQsqaUBKTNV-1">
          <mxGeometry x="101.5" y="510" width="210" height="60" as="geometry" />
        </mxCell>
        <mxCell id="LL0ys3BqvwsLpD2l1-oR-40" value="&lt;div&gt;When Player is within proximity of door (collider):&lt;br&gt;&lt;br&gt;UI prompt to Player informing Input Button &lt;br&gt;&lt;/div&gt;&lt;div&gt;for&amp;nbsp; &quot;Use Golden Apple&quot; to begin unlocking the door&lt;/div&gt;&lt;div&gt;(door is blocked)&lt;br&gt;&lt;/div&gt;&lt;div&gt;&lt;br&gt;&lt;/div&gt;&lt;div&gt;[ UI Script ]&lt;br&gt;&lt;/div&gt;" style="rounded=1;whiteSpace=wrap;html=1;fillColor=#fff2cc;strokeColor=#d6b656;" vertex="1" parent="WIyWlLk6GJQsqaUBKTNV-1">
          <mxGeometry x="370" y="550" width="320" height="110" as="geometry" />
        </mxCell>
        <mxCell id="LL0ys3BqvwsLpD2l1-oR-42" value="&lt;div&gt;Each time Use Input is pressed: &lt;br&gt;&lt;/div&gt;&lt;div&gt;-1 Golden Apple from inventory&lt;/div&gt;&lt;div&gt;&lt;br&gt;&lt;/div&gt;&lt;div&gt;[ UI / Lighting Script ]&lt;br&gt;&lt;/div&gt;" style="rounded=1;whiteSpace=wrap;html=1;fillColor=#fff2cc;strokeColor=#d6b656;" vertex="1" parent="WIyWlLk6GJQsqaUBKTNV-1">
          <mxGeometry x="370" y="680" width="320" height="80" as="geometry" />
        </mxCell>
        <mxCell id="LL0ys3BqvwsLpD2l1-oR-43" value="&lt;div&gt;&lt;br&gt;&lt;/div&gt;&lt;div&gt;Does Golden Apple &lt;br&gt;&lt;/div&gt;&lt;div&gt;inventory &lt;br&gt;&lt;/div&gt;&lt;div&gt;= &lt;br&gt;&lt;/div&gt;&lt;div&gt;0?&lt;br&gt;&lt;/div&gt;" style="rhombus;whiteSpace=wrap;html=1;fillColor=#f8cecc;strokeColor=#b85450;" vertex="1" parent="WIyWlLk6GJQsqaUBKTNV-1">
          <mxGeometry x="440" y="780" width="180" height="130" as="geometry" />
        </mxCell>
        <mxCell id="LL0ys3BqvwsLpD2l1-oR-44" value="&lt;div style=&quot;line-height: 20%;&quot;&gt;&lt;br&gt;&lt;/div&gt;&lt;div&gt;Only Light Radius is affected&lt;/div&gt;&lt;div&gt;(light reduced)&lt;br&gt;&lt;/div&gt;&lt;div&gt;&lt;br&gt;&lt;/div&gt;&lt;div&gt;[ See: Lighting Script ]&lt;/div&gt;" style="rounded=1;whiteSpace=wrap;html=1;fillColor=#ffe6cc;strokeColor=#d79b00;" vertex="1" parent="WIyWlLk6GJQsqaUBKTNV-1">
          <mxGeometry x="190" y="805" width="190" height="80" as="geometry" />
        </mxCell>
        <mxCell id="LL0ys3BqvwsLpD2l1-oR-45" value="" style="endArrow=classic;html=1;rounded=0;entryX=0.5;entryY=0;entryDx=0;entryDy=0;exitX=0.5;exitY=1;exitDx=0;exitDy=0;" edge="1" parent="WIyWlLk6GJQsqaUBKTNV-1" source="LL0ys3BqvwsLpD2l1-oR-42" target="LL0ys3BqvwsLpD2l1-oR-43">
          <mxGeometry width="50" height="50" relative="1" as="geometry">
            <mxPoint x="420" y="850" as="sourcePoint" />
            <mxPoint x="180" y="900" as="targetPoint" />
          </mxGeometry>
        </mxCell>
        <mxCell id="LL0ys3BqvwsLpD2l1-oR-47" value="" style="endArrow=classic;html=1;rounded=0;entryX=0.5;entryY=0;entryDx=0;entryDy=0;exitX=0.5;exitY=1;exitDx=0;exitDy=0;" edge="1" parent="WIyWlLk6GJQsqaUBKTNV-1" source="LL0ys3BqvwsLpD2l1-oR-40" target="LL0ys3BqvwsLpD2l1-oR-42">
          <mxGeometry width="50" height="50" relative="1" as="geometry">
            <mxPoint x="130" y="830" as="sourcePoint" />
            <mxPoint x="180" y="780" as="targetPoint" />
          </mxGeometry>
        </mxCell>
        <mxCell id="LL0ys3BqvwsLpD2l1-oR-48" value="" style="endArrow=classic;html=1;rounded=0;entryX=1;entryY=0.5;entryDx=0;entryDy=0;exitX=0;exitY=0.5;exitDx=0;exitDy=0;" edge="1" parent="WIyWlLk6GJQsqaUBKTNV-1" source="LL0ys3BqvwsLpD2l1-oR-43" target="LL0ys3BqvwsLpD2l1-oR-44">
          <mxGeometry width="50" height="50" relative="1" as="geometry">
            <mxPoint x="380" y="950" as="sourcePoint" />
            <mxPoint x="180" y="900" as="targetPoint" />
          </mxGeometry>
        </mxCell>
        <mxCell id="LL0ys3BqvwsLpD2l1-oR-49" value="No" style="text;strokeColor=none;align=center;fillColor=none;html=1;verticalAlign=middle;whiteSpace=wrap;rounded=0;" vertex="1" parent="WIyWlLk6GJQsqaUBKTNV-1">
          <mxGeometry x="380" y="820" width="60" height="30" as="geometry" />
        </mxCell>
        <mxCell id="LL0ys3BqvwsLpD2l1-oR-50" value="" style="endArrow=classic;html=1;rounded=0;exitX=0.5;exitY=1;exitDx=0;exitDy=0;" edge="1" parent="WIyWlLk6GJQsqaUBKTNV-1" source="LL0ys3BqvwsLpD2l1-oR-43" target="LL0ys3BqvwsLpD2l1-oR-51">
          <mxGeometry width="50" height="50" relative="1" as="geometry">
            <mxPoint x="130" y="980" as="sourcePoint" />
            <mxPoint x="420" y="1030" as="targetPoint" />
          </mxGeometry>
        </mxCell>
        <mxCell id="LL0ys3BqvwsLpD2l1-oR-51" value="&lt;div&gt;Remove blockage in doorway, &lt;br&gt;&lt;/div&gt;&lt;div&gt;allow player to move into exit.&lt;br&gt;&lt;br&gt;[ Collider / Trigger Script ]&lt;br&gt;&lt;/div&gt;" style="rounded=1;whiteSpace=wrap;html=1;fillColor=#fff2cc;strokeColor=#d6b656;" vertex="1" parent="WIyWlLk6GJQsqaUBKTNV-1">
          <mxGeometry x="370" y="940" width="320" height="80" as="geometry" />
        </mxCell>
        <mxCell id="LL0ys3BqvwsLpD2l1-oR-52" value="" style="endArrow=classic;html=1;rounded=0;entryX=0.5;entryY=0;entryDx=0;entryDy=0;" edge="1" parent="WIyWlLk6GJQsqaUBKTNV-1" source="LL0ys3BqvwsLpD2l1-oR-51" target="LL0ys3BqvwsLpD2l1-oR-21">
          <mxGeometry width="50" height="50" relative="1" as="geometry">
            <mxPoint x="130" y="1070" as="sourcePoint" />
            <mxPoint x="180" y="1020" as="targetPoint" />
          </mxGeometry>
        </mxCell>
        <mxCell id="LL0ys3BqvwsLpD2l1-oR-59" value="" style="edgeStyle=none;orthogonalLoop=1;jettySize=auto;html=1;rounded=0;exitX=0;exitY=0.5;exitDx=0;exitDy=0;entryX=0.5;entryY=0;entryDx=0;entryDy=0;" edge="1" parent="WIyWlLk6GJQsqaUBKTNV-1" source="LL0ys3BqvwsLpD2l1-oR-36" target="LL0ys3BqvwsLpD2l1-oR-39">
          <mxGeometry width="80" relative="1" as="geometry">
            <mxPoint x="210" y="580" as="sourcePoint" />
            <mxPoint x="180" y="500" as="targetPoint" />
            <Array as="points">
              <mxPoint x="207" y="480" />
            </Array>
          </mxGeometry>
        </mxCell>
        <mxCell id="LL0ys3BqvwsLpD2l1-oR-60" value="" style="edgeStyle=none;orthogonalLoop=1;jettySize=auto;html=1;rounded=0;exitX=0.5;exitY=1;exitDx=0;exitDy=0;entryX=0;entryY=0.5;entryDx=0;entryDy=0;" edge="1" parent="WIyWlLk6GJQsqaUBKTNV-1" source="LL0ys3BqvwsLpD2l1-oR-39" target="LL0ys3BqvwsLpD2l1-oR-40">
          <mxGeometry width="80" relative="1" as="geometry">
            <mxPoint x="210" y="760" as="sourcePoint" />
            <mxPoint x="290" y="760" as="targetPoint" />
            <Array as="points">
              <mxPoint x="207" y="605" />
            </Array>
          </mxGeometry>
        </mxCell>
      </root>
    </mxGraphModel>
  </diagram>
</mxfile>
